<svg xmlns="http://www.w3.org/2000/svg" viewBox="0 0 1200 720" role="img" aria-labelledby="t d"><title id="t">Maldives reef starter visual</title><desc id="d">Original illustrated tropical reef lagoon.</desc><defs><radialGradient id="r"><stop stop-color="#86eedb"/><stop offset=".48" stop-color="#129aa3"/><stop offset="1" stop-color="#053b53"/></radialGradient></defs><rect width="1200" height="720" fill="url(#r)"/><g fill="none" stroke-linecap="round"><path d="M146 286c171-178 329-94 427 18s260 147 462-32" stroke="#cdf8cf" stroke-width="45" opacity=".55"/><path d="M153 291c170-131 301-72 401 35s273 151 484-39" stroke="#1b745e" stroke-width="18" opacity=".7"/></g><g fill="#ffe7a0"><ellipse cx="213" cy="305" rx="88" ry="41"/><ellipse cx="938" cy="286" rx="106" ry="48"/></g><g fill="#115c42"><circle cx="188" cy="289" r="24"/><circle cx="229" cy="307" r="29"/><circle cx="906" cy="277" r="27"/><circle cx="955" cy="298" r="24"/></g><g fill="#e9ffff" opacity=".6"><path d="M449 180l27 12-27 12 10-12z"/><path d="M697 449l34 15-34 15 12-15z"/><path d="M803 194l23 10-23 10 8-10z"/></g><text x="56" y="650" fill="#fff" font-family="Georgia,serif" font-size="48">Maldives · Reef Discovery</text><text x="58" y="685" fill="#d5ffff" font-family="Arial,sans-serif" font-size="18" letter-spacing="4">EDITABLE STARTER VISUAL</text></svg>
